<mxfile host="app.diagrams.net" agent="Mozilla/5.0 (Windows NT 10.0; Win64; x64; rv:133.0) Gecko/20100101 Firefox/133.0" version="25.0.3">
  <diagram name="Страница — 1" id="1yd_zWTn6jj22jxOGMPq">
    <mxGraphModel dx="878" dy="547" grid="1" gridSize="10" guides="1" tooltips="1" connect="1" arrows="1" fold="1" page="1" pageScale="1" pageWidth="291" pageHeight="413" math="0" shadow="0">
      <root>
        <mxCell id="0" />
        <mxCell id="1" parent="0" />
        <mxCell id="UkGzxbfetQTRteoGIz7C-1" value="" style="edgeStyle=orthogonalEdgeStyle;rounded=0;orthogonalLoop=1;jettySize=auto;html=1;" edge="1" parent="1" source="UkGzxbfetQTRteoGIz7C-2" target="UkGzxbfetQTRteoGIz7C-3">
          <mxGeometry relative="1" as="geometry" />
        </mxCell>
        <mxCell id="UkGzxbfetQTRteoGIz7C-2" value="&lt;div&gt;начало&lt;/div&gt;" style="ellipse;whiteSpace=wrap;html=1;" vertex="1" parent="1">
          <mxGeometry x="200" y="10" width="120" height="80" as="geometry" />
        </mxCell>
        <mxCell id="UkGzxbfetQTRteoGIz7C-3" value="int main()" style="shape=process;whiteSpace=wrap;html=1;backgroundOutline=1;" vertex="1" parent="1">
          <mxGeometry x="200" y="180" width="120" height="60" as="geometry" />
        </mxCell>
        <mxCell id="UkGzxbfetQTRteoGIz7C-4" value="" style="endArrow=none;dashed=1;html=1;rounded=0;" edge="1" parent="1">
          <mxGeometry width="50" height="50" relative="1" as="geometry">
            <mxPoint x="260" y="130" as="sourcePoint" />
            <mxPoint x="430" y="130" as="targetPoint" />
          </mxGeometry>
        </mxCell>
        <mxCell id="UkGzxbfetQTRteoGIz7C-5" value="" style="endArrow=none;html=1;rounded=0;" edge="1" parent="1">
          <mxGeometry width="50" height="50" relative="1" as="geometry">
            <mxPoint x="430" y="250" as="sourcePoint" />
            <mxPoint x="430" y="10" as="targetPoint" />
          </mxGeometry>
        </mxCell>
        <mxCell id="UkGzxbfetQTRteoGIz7C-6" value="" style="endArrow=none;html=1;rounded=0;" edge="1" parent="1">
          <mxGeometry width="50" height="50" relative="1" as="geometry">
            <mxPoint x="430" y="10" as="sourcePoint" />
            <mxPoint x="510" y="10" as="targetPoint" />
          </mxGeometry>
        </mxCell>
        <mxCell id="UkGzxbfetQTRteoGIz7C-7" value="" style="endArrow=none;html=1;rounded=0;" edge="1" parent="1">
          <mxGeometry width="50" height="50" relative="1" as="geometry">
            <mxPoint x="430" y="250" as="sourcePoint" />
            <mxPoint x="510" y="250" as="targetPoint" />
            <Array as="points">
              <mxPoint x="470" y="250" />
            </Array>
          </mxGeometry>
        </mxCell>
        <mxCell id="UkGzxbfetQTRteoGIz7C-8" value="&lt;div align=&quot;justify&quot;&gt;&lt;font face=&quot;Helvetica&quot;&gt;#definе USE_MATH_DEFINES&lt;/font&gt;&lt;/div&gt;" style="text;html=1;align=center;verticalAlign=middle;whiteSpace=wrap;rounded=0;" vertex="1" parent="1">
          <mxGeometry x="440" y="10" width="180" height="30" as="geometry" />
        </mxCell>
        <mxCell id="UkGzxbfetQTRteoGIz7C-9" value="#includе &amp;lt;iostream&amp;gt;" style="text;html=1;align=center;verticalAlign=middle;whiteSpace=wrap;rounded=0;" vertex="1" parent="1">
          <mxGeometry x="420" y="35" width="160" height="30" as="geometry" />
        </mxCell>
        <mxCell id="UkGzxbfetQTRteoGIz7C-10" value="const int a = 0;" style="text;html=1;align=center;verticalAlign=middle;whiteSpace=wrap;rounded=0;" vertex="1" parent="1">
          <mxGeometry x="430" y="100" width="120" height="30" as="geometry" />
        </mxCell>
        <mxCell id="UkGzxbfetQTRteoGIz7C-11" value="#includе &amp;lt;cmath&amp;gt;" style="text;html=1;align=center;verticalAlign=middle;whiteSpace=wrap;rounded=0;" vertex="1" parent="1">
          <mxGeometry x="414" y="60" width="160" height="30" as="geometry" />
        </mxCell>
        <mxCell id="UkGzxbfetQTRteoGIz7C-12" value="const int b = 1;" style="text;html=1;align=center;verticalAlign=middle;whiteSpace=wrap;rounded=0;" vertex="1" parent="1">
          <mxGeometry x="430" y="120" width="120" height="30" as="geometry" />
        </mxCell>
        <mxCell id="UkGzxbfetQTRteoGIz7C-14" value="const int E = 0.000001;" style="text;html=1;align=center;verticalAlign=middle;whiteSpace=wrap;rounded=0;" vertex="1" parent="1">
          <mxGeometry x="450" y="160" width="130" height="30" as="geometry" />
        </mxCell>
        <mxCell id="UkGzxbfetQTRteoGIz7C-16" value="const int e = M_E;" style="text;html=1;align=center;verticalAlign=middle;whiteSpace=wrap;rounded=0;" vertex="1" parent="1">
          <mxGeometry x="440" y="140" width="120" height="30" as="geometry" />
        </mxCell>
        <mxCell id="UkGzxbfetQTRteoGIz7C-17" value="double x0, x1;" style="text;html=1;align=center;verticalAlign=middle;whiteSpace=wrap;rounded=0;" vertex="1" parent="1">
          <mxGeometry x="430" y="180" width="120" height="30" as="geometry" />
        </mxCell>
        <mxCell id="UkGzxbfetQTRteoGIz7C-18" value="bool flag = 1;" style="text;html=1;align=center;verticalAlign=middle;whiteSpace=wrap;rounded=0;" vertex="1" parent="1">
          <mxGeometry x="430" y="220" width="120" height="30" as="geometry" />
        </mxCell>
        <mxCell id="UkGzxbfetQTRteoGIz7C-19" value="int counter = 0;" style="text;html=1;align=center;verticalAlign=middle;whiteSpace=wrap;rounded=0;" vertex="1" parent="1">
          <mxGeometry x="434" y="200" width="120" height="30" as="geometry" />
        </mxCell>
        <mxCell id="UkGzxbfetQTRteoGIz7C-21" value="using namespace std;" style="text;html=1;align=center;verticalAlign=middle;whiteSpace=wrap;rounded=0;" vertex="1" parent="1">
          <mxGeometry x="420" y="80" width="180" height="30" as="geometry" />
        </mxCell>
      </root>
    </mxGraphModel>
  </diagram>
</mxfile>
